<?xml version="1.0" encoding="UTF-8" standalone="no"?>
<!DOCTYPE svg PUBLIC "-//W3C//DTD SVG 1.1//EN" "http://www.w3.org/Graphics/SVG/1.1/DTD/svg11.dtd">
<svg width="100%" height="100%" viewBox="0 0 67 43" version="1.1" xmlns="http://www.w3.org/2000/svg" xmlns:xlink="http://www.w3.org/1999/xlink" xml:space="preserve" xmlns:serif="http://www.serif.com/" style="fill-rule:evenodd;clip-rule:evenodd;stroke-linejoin:round;stroke-miterlimit:1.41421;">
    <g id="step0">
        <g transform="matrix(1,0,0,1,-82.8175,-84.9751)">
            <path d="M144.968,104.236C146.542,102.165 147.339,99.727 147.339,96.978C147.339,93.869 146.201,91.155 143.963,88.917C141.79,86.683 139.064,85.55 135.861,85.55L124.635,85.55C123.06,85.55 121.958,86.65 121.958,88.226L121.958,124.474C121.958,126.024 123.083,127.15 124.635,127.15L137.199,127.15C140.476,127.15 143.317,125.972 145.641,123.648C147.999,121.292 149.195,118.451 149.195,115.205L149.195,113.609C149.195,111.232 148.535,108.987 147.235,106.942C146.6,105.911 145.839,105.003 144.968,104.236ZM138.248,99.947C137.54,100.688 136.574,101.047 135.293,101.047L129.938,101.047L129.938,93.528L135.861,93.528C136.922,93.528 137.638,93.812 138.334,94.506C139.055,95.227 139.363,95.966 139.363,96.978C139.362,98.246 139.029,99.135 138.248,99.947ZM129.938,109.025L136.631,109.025C137.862,109.025 138.935,109.475 139.825,110.363C140.759,111.299 141.214,112.361 141.214,113.61L141.214,115.206C141.214,116.28 140.827,117.19 140.032,117.987C139.224,118.794 138.324,119.17 137.199,119.17L129.939,119.17L129.938,109.025Z" style="fill:rgb(68,58,49);fill-rule:nonzero;"/>
        </g>
        <g transform="matrix(1,0,0,1,-5.43132,-31.7475)">
            <path d="M17.76,48.177L17.76,60.638C17.76,62.972 18.567,64.986 20.255,66.676C21.946,68.367 23.879,69.171 26.294,69.171C28.629,69.171 30.642,68.367 32.252,66.676C33.943,64.985 34.828,62.971 34.828,60.638L34.828,33.748C34.828,33.184 35.069,32.944 35.633,32.944L39.819,32.944C40.383,32.944 40.705,33.184 40.705,33.748L40.705,60.638C40.705,64.583 39.255,67.964 36.438,70.782C33.62,73.599 30.239,75.049 26.293,75.049C22.349,75.049 18.887,73.599 16.068,70.782C13.251,67.965 11.882,64.583 11.882,60.638L11.882,54.218L17.76,48.177Z" style="fill:rgb(68,58,49);fill-rule:nonzero;"/>
        </g>
        <g transform="matrix(1,0,0,1,-5.43132,-31.7475)">
            <path d="M17.766,32.95L6.252,32.95L6.252,37.349L11.883,37.349L11.883,54.218L17.76,48.177L17.766,32.95Z" style="fill:rgb(0,159,227);fill-rule:nonzero;"/>
        </g>
    </g>
</svg>