<?xml version="1.0" standalone="no"?>
<!DOCTYPE svg PUBLIC "-//W3C//DTD SVG 20010904//EN"
 "http://www.w3.org/TR/2001/REC-SVG-20010904/DTD/svg10.dtd">
<svg version="1.0" xmlns="http://www.w3.org/2000/svg"
 width="1072.000000pt" height="1072.000000pt" viewBox="0 0 1072.000000 1072.000000"
 preserveAspectRatio="xMidYMid meet">
<metadata>
Created by potrace 1.11, written by Peter Selinger 2001-2013
</metadata>
<g transform="translate(0.000000,1072.000000) scale(0.100000,-0.100000)"
fill="#000000" stroke="none">
<path d="M6577 8695 c-20 -7 -37 -11 -37 -8 0 2 -26 -10 -59 -27 -105 -56
-181 -157 -205 -275 -10 -47 -13 -680 -11 -3025 1 -1631 4 -2974 8 -2985 16
-56 39 -110 58 -138 33 -48 108 -115 154 -137 101 -49 74 -48 1275 -45 619 1
1141 5 1161 8 20 3 56 8 80 11 24 3 51 8 59 9 8 2 33 7 55 11 22 5 72 17 110
29 39 11 77 22 85 23 28 6 208 83 277 120 289 152 601 447 758 714 17 29 36
58 43 65 6 8 12 17 12 22 0 5 17 42 38 83 40 78 116 280 106 280 -4 0 -2 6 3
13 6 6 14 30 18 52 5 22 10 45 11 50 2 6 6 26 9 45 4 19 8 46 11 60 15 82 19
176 19 435 0 307 -4 369 -30 505 -25 127 -71 290 -88 306 -4 4 -7 14 -7 21 0
21 -77 185 -131 279 -72 127 -187 294 -201 294 -4 0 -8 5 -8 11 0 6 -12 23
-27 39 -16 16 -61 62 -102 104 l-73 75 28 46 c16 25 32 45 37 45 4 0 7 4 7 10
0 5 12 26 26 47 29 42 144 272 147 294 2 8 5 19 9 24 18 31 86 285 93 350 2
17 6 44 9 60 7 37 19 165 17 183 -1 16 -1 22 2 117 2 44 1 84 -1 89 -3 4 -6
38 -8 74 -4 64 -12 117 -39 251 -10 54 -67 226 -82 248 -8 12 -12 23 -9 23 11
0 -94 199 -148 280 -124 187 -315 388 -486 512 -36 26 -70 52 -77 58 -7 5 -14
10 -17 10 -2 0 -37 19 -78 43 -98 58 -252 123 -358 152 -3 1 -23 7 -46 13 -55
16 -139 32 -194 38 -25 3 -70 9 -100 13 -30 5 -507 9 -1060 9 -795 0 -1013 -3
-1043 -13z m1982 -1268 c36 -3 78 -10 94 -16 15 -6 27 -8 27 -5 0 8 62 -25
125 -68 115 -77 203 -207 230 -339 7 -32 11 -101 10 -151 -6 -198 -58 -322
-191 -455 -87 -87 -194 -135 -349 -158 -47 -7 -955 -8 -962 -1 -8 8 -9 86 -1
86 4 0 3 13 -2 29 -4 16 -6 31 -4 33 4 5 5 169 1 316 -1 56 1 102 5 102 4 0 3
13 -2 29 -4 16 -6 31 -4 33 4 5 5 169 1 316 -1 56 1 102 5 102 3 0 3 11 0 25
-12 43 -2 124 16 127 25 5 928 0 1001 -5z m137 -2480 c34 -3 71 -10 83 -16 11
-7 21 -9 21 -6 0 2 26 -5 58 -17 192 -72 363 -243 443 -443 34 -86 41 -148 41
-375 1 -203 -9 -295 -35 -327 -5 -7 -7 -13 -4 -13 10 0 -26 -73 -62 -125 -73
-106 -176 -195 -277 -240 -119 -53 -139 -55 -805 -55 l-617 0 -1 33 c0 17 -2
78 -3 135 -2 56 0 102 4 102 3 0 4 8 2 18 -8 28 -10 462 -2 462 3 0 4 8 2 18
-8 29 -9 462 -2 462 4 0 3 13 -2 29 -4 16 -6 31 -4 33 3 4 5 136 3 267 -1 29
3 56 9 60 12 7 1058 6 1148 -2z"/>
<path d="M133 8256 l2 -351 442 0 c243 0 444 -3 448 -7 4 -3 8 -879 9 -1945 1
-1066 5 -1972 9 -2013 3 -41 14 -118 23 -170 9 -52 17 -103 18 -112 0 -10 4
-18 9 -18 4 0 6 -4 3 -9 -6 -10 71 -272 85 -286 5 -5 9 -15 9 -23 0 -29 132
-282 203 -389 98 -146 178 -244 312 -378 306 -307 659 -511 1061 -615 77 -20
101 -20 585 -17 277 1 518 6 534 10 499 130 910 402 1274 842 9 11 34 45 56
75 22 30 43 57 47 58 5 2 8 10 8 17 0 8 6 20 13 27 22 21 117 187 117 203 0 8
3 15 8 15 4 0 13 15 21 33 8 17 24 55 36 82 22 51 37 86 40 95 1 3 13 41 27
86 28 83 59 198 63 224 2 18 16 97 21 125 5 25 12 80 20 170 3 39 7 1074 7
2300 1 2471 7 2274 -66 2308 -34 16 -72 17 -427 15 l-390 -3 -25 -29 c-14 -16
-26 -34 -26 -40 -1 -6 -3 -1003 -4 -2216 -2 -1930 -5 -2346 -20 -2370 -2 -3
-6 -25 -10 -50 -4 -24 -11 -52 -16 -62 -5 -10 -7 -18 -5 -18 9 0 -44 -139 -82
-220 -116 -241 -353 -495 -581 -623 -85 -48 -242 -112 -301 -122 -18 -3 -36
-7 -39 -9 -3 -2 -28 -7 -56 -11 -27 -3 -66 -9 -85 -12 -84 -13 -414 -4 -440
12 -4 3 -25 7 -46 11 -126 20 -377 133 -477 214 -136 111 -277 248 -277 269 0
6 -4 11 -8 11 -10 0 -72 87 -72 100 0 6 -3 10 -8 10 -8 0 -10 4 -68 121 -39
80 -65 138 -66 149 -1 3 -9 28 -19 57 -10 29 -21 69 -24 90 -10 55 -14 74 -21
108 -3 17 -7 1065 -8 2330 l-2 2300 -921 1 -922 2 2 -352z"/>
</g>
</svg>
